<svg width="22" height="21" viewBox="0 0 22 21" fill="none" xmlns="http://www.w3.org/2000/svg">
  <path d="M11 10.5c-1.657 0-3-1.343-3-3s1.343-3 3-3 3 1.343 3 3-1.343 3-3 3zm-6.5 8v-1.5c0-2.485 4.029-4.5 6.5-4.5s6.5 2.015 6.5 4.5V18.5h-13zm11.5-8c0.96 0 1.75-0.79 1.75-1.75S17.96 7 17 7s-1.75 0.79-1.75 1.75S16.04 10.5 17 10.5zm-10.5 0c0.96 0 1.75-0.79 1.75-1.75S7.46 7 6.5 7 4.75 7.79 4.75 8.75 5.54 10.5 6.5 10.5zm-4.5 8v-1.5C2 15.985 4.015 14.5 6.5 14.5s4.5 1.485 4.5 3.5V18.5H2zm11.5 0v-1.5c0-2.015 2.015-3.5 4.5-3.5s4.5 1.485 4.5 3.5V18.5h-9z" fill="#00F6FF"/>
</svg>
